<?xml version="1.0" encoding="UTF-8" standalone="no"?>
<!DOCTYPE svg PUBLIC "-//W3C//DTD SVG 1.1//EN" "http://www.w3.org/Graphics/SVG/1.1/DTD/svg11.dtd">
<svg width="100%" height="100%" viewBox="0 0 128 128" version="1.1" xmlns="http://www.w3.org/2000/svg" xmlns:xlink="http://www.w3.org/1999/xlink" xml:space="preserve" xmlns:serif="http://www.serif.com/" style="fill-rule:evenodd;clip-rule:evenodd;stroke-linejoin:round;stroke-miterlimit:2;">
    <g transform="matrix(1.8274,0,0,1.8274,-57.1029,-43.322)">
        <path d="M64.541,87.459L51.906,87.459C43.978,87.459 37.541,81.022 37.541,73.094L37.541,44.365C37.541,36.437 43.978,30 51.906,30L80.635,30C88.563,30 95,36.437 95,44.365L95,73.094C95,81.022 88.563,87.459 80.635,87.459L67.541,87.459L67.541,86.459C67.541,86.459 67.541,86.334 67.54,86.103C67.53,83.859 67.481,71.608 67.541,67.459C67.582,64.621 69.144,61.769 73.041,60.959C77.259,60.082 90.132,51.695 87.541,38.459C87.541,38.459 62.578,37.519 65.041,63.959C65.041,63.959 61.537,44.866 45.541,49.459C45.541,49.459 43.507,60.926 60.041,64.959C63.156,65.718 64.532,70.027 64.541,73.459C64.551,77.272 64.542,86.83 64.541,87.429C64.541,87.449 64.541,87.459 64.541,87.459Z"/>
    </g>
    <g transform="matrix(1.8274,0,0,1.8274,-52.459,-43.1343)">
        <path d="M64.998,86.001L65,86L65,86.356C65,86.356 64.999,86.231 64.998,86.001Z" style="fill:none;"/>
    </g>
</svg>
